<svg width="1600" height="900" viewBox="0 0 1600 900" fill="none" xmlns="http://www.w3.org/2000/svg">
  <rect width="1600" height="900" rx="48" fill="#07111C"/>
  <rect x="24" y="24" width="1552" height="852" rx="40" fill="url(#bg)"/>
  <circle cx="1320" cy="176" r="218" fill="#FACC15" fill-opacity="0.12"/>
  <rect x="112" y="118" width="1376" height="664" rx="40" fill="#08121C" fill-opacity="0.78" stroke="#FFFFFF" stroke-opacity="0.12"/>
  <rect x="172" y="170" width="244" height="44" rx="22" fill="#FACC15" fill-opacity="0.16"/>
  <text x="206" y="199" fill="#FEF08A" font-size="22" font-family="Arial, Helvetica, sans-serif" font-weight="700">DEFENDING DUELS</text>
  <text x="172" y="290" fill="#F8FAFC" font-size="66" font-family="Arial, Helvetica, sans-serif" font-weight="700">Amina Yusuf</text>
  <text x="172" y="364" fill="#CBD5E1" font-size="34" font-family="Arial, Helvetica, sans-serif">Center-back footage focused on recovery runs, line management, and communication through pressure.</text>
  <rect x="172" y="470" width="416" height="110" rx="28" fill="#FACC15" fill-opacity="0.12" stroke="#FACC15" stroke-opacity="0.28"/>
  <text x="204" y="510" fill="#FEF08A" font-size="24" font-family="Arial, Helvetica, sans-serif" font-weight="700">SMARTPLAY TAKEAWAY</text>
  <text x="204" y="550" fill="#F8FAFC" font-size="30" font-family="Arial, Helvetica, sans-serif">Protects depth with calm body shape.</text>
  <text x="204" y="590" fill="#F8FAFC" font-size="30" font-family="Arial, Helvetica, sans-serif">Next gain: earlier line communication.</text>
  <path d="M922 618C1000 560 1052 520 1106 470C1174 408 1248 358 1384 306" stroke="#FACC15" stroke-width="10" stroke-linecap="round"/>
  <circle cx="1106" cy="470" r="16" fill="#FACC15"/>
  <circle cx="1384" cy="306" r="16" fill="#FACC15"/>
  <rect x="1142" y="690" width="210" height="16" rx="8" fill="#1E293B"/>
  <rect x="1142" y="690" width="142" height="16" rx="8" fill="#FACC15"/>
  <text x="1142" y="668" fill="#CBD5E1" font-size="18" font-family="Arial, Helvetica, sans-serif">88-second review clip</text>
  <defs>
    <linearGradient id="bg" x1="144" y1="126" x2="1458" y2="792" gradientUnits="userSpaceOnUse">
      <stop stop-color="#10263A"/>
      <stop offset="1" stop-color="#081019"/>
    </linearGradient>
  </defs>
</svg>
