<svg width="1600" height="900" viewBox="0 0 1600 900" fill="none" xmlns="http://www.w3.org/2000/svg">
  <rect width="1600" height="900" rx="48" fill="#07121D"/>
  <rect x="24" y="24" width="1552" height="852" rx="40" fill="url(#bg)"/>
  <circle cx="1328" cy="176" r="220" fill="#38BDF8" fill-opacity="0.12"/>
  <rect x="112" y="118" width="1376" height="664" rx="40" fill="#07111B" fill-opacity="0.78" stroke="#FFFFFF" stroke-opacity="0.12"/>
  <rect x="172" y="170" width="228" height="44" rx="22" fill="#38BDF8" fill-opacity="0.16"/>
  <text x="206" y="199" fill="#BAE6FD" font-size="22" font-family="Arial, Helvetica, sans-serif" font-weight="700">MATCH PRESSING CLIPS</text>
  <text x="172" y="290" fill="#F8FAFC" font-size="66" font-family="Arial, Helvetica, sans-serif" font-weight="700">Dani Brooks</text>
  <text x="172" y="364" fill="#CBD5E1" font-size="34" font-family="Arial, Helvetica, sans-serif">Transition-focused striker footage showing press triggers, near-post runs, and finishing decisions.</text>
  <rect x="172" y="470" width="388" height="110" rx="28" fill="#38BDF8" fill-opacity="0.12" stroke="#38BDF8" stroke-opacity="0.28"/>
  <text x="204" y="510" fill="#BAE6FD" font-size="24" font-family="Arial, Helvetica, sans-serif" font-weight="700">SMARTPLAY TAKEAWAY</text>
  <text x="204" y="550" fill="#F8FAFC" font-size="30" font-family="Arial, Helvetica, sans-serif">Press timing creates danger.</text>
  <text x="204" y="590" fill="#F8FAFC" font-size="30" font-family="Arial, Helvetica, sans-serif">Next gain: calmer final action.</text>
  <path d="M882 560L1010 488L1124 448L1276 396L1392 292" stroke="#38BDF8" stroke-width="10" stroke-linecap="round" stroke-linejoin="round"/>
  <circle cx="1010" cy="488" r="16" fill="#38BDF8"/>
  <circle cx="1276" cy="396" r="16" fill="#38BDF8"/>
  <circle cx="1392" cy="292" r="16" fill="#38BDF8"/>
  <rect x="1124" y="684" width="240" height="16" rx="8" fill="#1E293B"/>
  <rect x="1124" y="684" width="194" height="16" rx="8" fill="#38BDF8"/>
  <text x="1124" y="662" fill="#CBD5E1" font-size="18" font-family="Arial, Helvetica, sans-serif">154-second highlight sequence</text>
  <defs>
    <linearGradient id="bg" x1="140" y1="126" x2="1462" y2="788" gradientUnits="userSpaceOnUse">
      <stop stop-color="#10253B"/>
      <stop offset="1" stop-color="#08101A"/>
    </linearGradient>
  </defs>
</svg>
