<svg width="1600" height="900" viewBox="0 0 1600 900" fill="none" xmlns="http://www.w3.org/2000/svg">
  <rect width="1600" height="900" rx="48" fill="#07111F"/>
  <rect x="24" y="24" width="1552" height="852" rx="40" fill="url(#bg)"/>
  <circle cx="1320" cy="180" r="220" fill="#A3E635" fill-opacity="0.08"/>
  <circle cx="280" cy="760" r="260" fill="#38BDF8" fill-opacity="0.08"/>
  <rect x="110" y="120" width="1380" height="660" rx="36" fill="#050B14" fill-opacity="0.72" stroke="#FFFFFF" stroke-opacity="0.14"/>
  <path d="M240 630C330 510 460 420 615 410C722 403 833 436 944 390C1058 344 1177 257 1352 222" stroke="#A3E635" stroke-width="8" stroke-linecap="round"/>
  <circle cx="615" cy="410" r="14" fill="#A3E635"/>
  <circle cx="944" cy="390" r="14" fill="#A3E635"/>
  <circle cx="1352" cy="222" r="14" fill="#A3E635"/>
  <rect x="170" y="160" width="228" height="42" rx="21" fill="#A3E635" fill-opacity="0.16"/>
  <text x="196" y="188" fill="#D9F99D" font-size="22" font-family="Arial, Helvetica, sans-serif" font-weight="700">SMARTPLAY REVIEW</text>
  <text x="170" y="282" fill="#F8FAFC" font-size="64" font-family="Arial, Helvetica, sans-serif" font-weight="700">Upload a clip to generate</text>
  <text x="170" y="360" fill="#F8FAFC" font-size="64" font-family="Arial, Helvetica, sans-serif" font-weight="700">soccer-specific feedback</text>
  <text x="170" y="432" fill="#94A3B8" font-size="30" font-family="Arial, Helvetica, sans-serif">Best results come from a focused sequence plus one clear question.</text>
  <rect x="170" y="520" width="300" height="88" rx="24" fill="#A3E635" fill-opacity="0.12" stroke="#A3E635" stroke-opacity="0.32"/>
  <text x="202" y="555" fill="#D9F99D" font-size="22" font-family="Arial, Helvetica, sans-serif" font-weight="700">WHAT TO INCLUDE</text>
  <text x="202" y="590" fill="#F8FAFC" font-size="28" font-family="Arial, Helvetica, sans-serif">Match context, role,</text>
  <text x="202" y="626" fill="#F8FAFC" font-size="28" font-family="Arial, Helvetica, sans-serif">and one review question</text>
  <rect x="1140" y="632" width="240" height="16" rx="8" fill="#1E293B"/>
  <rect x="1140" y="632" width="152" height="16" rx="8" fill="#A3E635"/>
  <text x="1140" y="614" fill="#94A3B8" font-size="18" font-family="Arial, Helvetica, sans-serif">AI review confidence grows with better footage.</text>
  <defs>
    <linearGradient id="bg" x1="130" y1="120" x2="1470" y2="800" gradientUnits="userSpaceOnUse">
      <stop stop-color="#10233E"/>
      <stop offset="1" stop-color="#08101B"/>
    </linearGradient>
  </defs>
</svg>
