<svg width="1600" height="900" viewBox="0 0 1600 900" fill="none" xmlns="http://www.w3.org/2000/svg">
  <rect width="1600" height="900" rx="48" fill="#06111E"/>
  <rect x="24" y="24" width="1552" height="852" rx="40" fill="url(#bg)"/>
  <circle cx="1340" cy="180" r="210" fill="#F97316" fill-opacity="0.12"/>
  <rect x="112" y="118" width="1376" height="664" rx="40" fill="#07111B" fill-opacity="0.76" stroke="#FFFFFF" stroke-opacity="0.12"/>
  <rect x="172" y="170" width="250" height="44" rx="22" fill="#FB923C" fill-opacity="0.18"/>
  <text x="204" y="199" fill="#FED7AA" font-size="22" font-family="Arial, Helvetica, sans-serif" font-weight="700">WEAK-FOOT FINISHING</text>
  <text x="172" y="290" fill="#F8FAFC" font-size="66" font-family="Arial, Helvetica, sans-serif" font-weight="700">Maya Lopez</text>
  <text x="172" y="364" fill="#CBD5E1" font-size="34" font-family="Arial, Helvetica, sans-serif">Home park session focused on calm setup touch and cleaner strike path.</text>
  <rect x="172" y="470" width="360" height="110" rx="28" fill="#FB923C" fill-opacity="0.12" stroke="#FB923C" stroke-opacity="0.28"/>
  <text x="204" y="510" fill="#FED7AA" font-size="24" font-family="Arial, Helvetica, sans-serif" font-weight="700">SMARTPLAY TAKEAWAY</text>
  <text x="204" y="550" fill="#F8FAFC" font-size="30" font-family="Arial, Helvetica, sans-serif">Good body line into contact.</text>
  <text x="204" y="590" fill="#F8FAFC" font-size="30" font-family="Arial, Helvetica, sans-serif">Next gain: plant-foot stability.</text>
  <path d="M910 605C988 514 1075 458 1176 420C1249 393 1325 364 1390 292" stroke="#FB923C" stroke-width="10" stroke-linecap="round"/>
  <circle cx="1176" cy="420" r="16" fill="#FB923C"/>
  <circle cx="1390" cy="292" r="16" fill="#FB923C"/>
  <circle cx="905" cy="612" r="40" fill="#F8FAFC"/>
  <path d="M905 574V650" stroke="#F97316" stroke-width="10" stroke-linecap="round"/>
  <path d="M867 612H943" stroke="#F97316" stroke-width="10" stroke-linecap="round"/>
  <rect x="1162" y="690" width="208" height="16" rx="8" fill="#1E293B"/>
  <rect x="1162" y="690" width="158" height="16" rx="8" fill="#FB923C"/>
  <text x="1162" y="668" fill="#CBD5E1" font-size="18" font-family="Arial, Helvetica, sans-serif">58-second review clip</text>
  <defs>
    <linearGradient id="bg" x1="148" y1="126" x2="1460" y2="790" gradientUnits="userSpaceOnUse">
      <stop stop-color="#12253F"/>
      <stop offset="1" stop-color="#090F18"/>
    </linearGradient>
  </defs>
</svg>
